<svg width="189" height="27" viewBox="0 0 189 27" fill="none" xmlns="http://www.w3.org/2000/svg">
<path d="M8.964 26V16.712L0.612 0.799998H4.932L10.872 12.968L16.776 0.799998H21.06L12.78 16.712V26H8.964ZM28.1762 26.432C26.4722 26.432 24.9362 26.048 23.5682 25.28C22.2242 24.488 21.1562 23.396 20.3642 22.004C19.5722 20.588 19.1762 18.944 19.1762 17.072C19.1762 15.2 19.5722 13.568 20.3642 12.176C21.1802 10.76 22.2722 9.668 23.6402 8.9C25.0082 8.108 26.5322 7.712 28.2122 7.712C29.9162 7.712 31.4402 8.108 32.7842 8.9C34.1522 9.668 35.2322 10.76 36.0242 12.176C36.8402 13.568 37.2482 15.2 37.2482 17.072C37.2482 18.944 36.8402 20.588 36.0242 22.004C35.2322 23.396 34.1522 24.488 32.7842 25.28C31.4162 26.048 29.8802 26.432 28.1762 26.432ZM28.1762 23.156C29.0882 23.156 29.9282 22.928 30.6962 22.472C31.4882 22.016 32.1242 21.344 32.6042 20.456C33.0842 19.544 33.3242 18.416 33.3242 17.072C33.3242 15.728 33.0842 14.612 32.6042 13.724C32.1482 12.812 31.5242 12.128 30.7322 11.672C29.9642 11.216 29.1242 10.988 28.2122 10.988C27.3002 10.988 26.4482 11.216 25.6562 11.672C24.8882 12.128 24.2642 12.812 23.7842 13.724C23.3042 14.612 23.0642 15.728 23.0642 17.072C23.0642 18.416 23.3042 19.544 23.7842 20.456C24.2642 21.344 24.8882 22.016 25.6562 22.472C26.4242 22.928 27.2642 23.156 28.1762 23.156ZM46.883 26.432C44.723 26.432 43.019 25.76 41.771 24.416C40.547 23.072 39.935 21.068 39.935 18.404V8.144H43.751V18.008C43.751 21.464 45.167 23.192 47.999 23.192C49.415 23.192 50.579 22.688 51.491 21.68C52.403 20.672 52.859 19.232 52.859 17.36V8.144H56.675V26H53.291L53.003 22.868C52.451 23.972 51.635 24.848 50.555 25.496C49.499 26.12 48.275 26.432 46.883 26.432ZM60.4493 26V8.144H63.8693L64.1933 11.528C64.8173 10.352 65.6813 9.428 66.7853 8.756C67.9133 8.06 69.2693 7.712 70.8533 7.712V11.708H69.8093C68.7533 11.708 67.8053 11.888 66.9653 12.248C66.1493 12.584 65.4893 13.172 64.9853 14.012C64.5053 14.828 64.2653 15.968 64.2653 17.432V26H60.4493ZM80.1731 26.432C77.9171 26.432 76.0571 25.88 74.5931 24.776C73.1291 23.672 72.2891 22.208 72.0731 20.384H75.9251C76.1171 21.2 76.5731 21.908 77.2931 22.508C78.0131 23.084 78.9611 23.372 80.1371 23.372C81.2891 23.372 82.1291 23.132 82.6571 22.652C83.1851 22.172 83.4491 21.62 83.4491 20.996C83.4491 20.084 83.0771 19.472 82.3331 19.16C81.6131 18.824 80.6051 18.524 79.3091 18.26C78.3011 18.044 77.2931 17.756 76.2851 17.396C75.3011 17.036 74.4731 16.532 73.8011 15.884C73.1531 15.212 72.8291 14.312 72.8291 13.184C72.8291 11.624 73.4291 10.328 74.6291 9.296C75.8291 8.24 77.5091 7.712 79.6691 7.712C81.6611 7.712 83.2691 8.192 84.4931 9.152C85.7411 10.112 86.4731 11.468 86.6891 13.22H83.0171C82.8971 12.452 82.5371 11.852 81.9371 11.42C81.3611 10.988 80.5811 10.772 79.5971 10.772C78.6371 10.772 77.8931 10.976 77.3651 11.384C76.8371 11.768 76.5731 12.272 76.5731 12.896C76.5731 13.52 76.9331 14.012 77.6531 14.372C78.3971 14.732 79.3691 15.056 80.5691 15.344C81.7691 15.608 82.8731 15.92 83.8811 16.28C84.9131 16.616 85.7411 17.12 86.3651 17.792C86.9891 18.464 87.3011 19.448 87.3011 20.744C87.3251 22.376 86.6891 23.732 85.3931 24.812C84.1211 25.892 82.3811 26.432 80.1731 26.432ZM90.531 26V0.799998H106.551V3.896H94.347V11.744H105.471V14.768H94.347V22.904H106.551V26H90.531ZM117.001 26.432C114.745 26.432 112.885 25.88 111.421 24.776C109.957 23.672 109.117 22.208 108.901 20.384H112.753C112.945 21.2 113.401 21.908 114.121 22.508C114.841 23.084 115.789 23.372 116.965 23.372C118.117 23.372 118.957 23.132 119.485 22.652C120.013 22.172 120.277 21.62 120.277 20.996C120.277 20.084 119.905 19.472 119.161 19.16C118.441 18.824 117.433 18.524 116.137 18.26C115.129 18.044 114.121 17.756 113.113 17.396C112.129 17.036 111.301 16.532 110.629 15.884C109.981 15.212 109.657 14.312 109.657 13.184C109.657 11.624 110.257 10.328 111.457 9.296C112.657 8.24 114.337 7.712 116.497 7.712C118.489 7.712 120.097 8.192 121.321 9.152C122.569 10.112 123.301 11.468 123.517 13.22H119.845C119.725 12.452 119.365 11.852 118.765 11.42C118.189 10.988 117.409 10.772 116.425 10.772C115.465 10.772 114.721 10.976 114.193 11.384C113.665 11.768 113.401 12.272 113.401 12.896C113.401 13.52 113.761 14.012 114.481 14.372C115.225 14.732 116.197 15.056 117.397 15.344C118.597 15.608 119.701 15.92 120.709 16.28C121.741 16.616 122.569 17.12 123.193 17.792C123.817 18.464 124.129 19.448 124.129 20.744C124.153 22.376 123.517 23.732 122.221 24.812C120.949 25.892 119.209 26.432 117.001 26.432ZM134.035 26C132.283 26 130.891 25.58 129.859 24.74C128.827 23.876 128.311 22.352 128.311 20.168V11.348H125.251V8.144H128.311L128.779 3.608H132.127V8.144H137.167V11.348H132.127V20.168C132.127 21.152 132.331 21.836 132.739 22.22C133.171 22.58 133.903 22.76 134.935 22.76H136.987V26H134.035ZM146.07 26.432C144.558 26.432 143.31 26.18 142.326 25.676C141.342 25.172 140.61 24.512 140.13 23.696C139.65 22.856 139.41 21.944 139.41 20.96C139.41 19.232 140.082 17.864 141.426 16.856C142.77 15.848 144.69 15.344 147.186 15.344H151.866V15.02C151.866 13.628 151.482 12.584 150.714 11.888C149.97 11.192 148.998 10.844 147.798 10.844C146.742 10.844 145.818 11.108 145.026 11.636C144.258 12.14 143.79 12.896 143.622 13.904H139.806C139.926 12.608 140.358 11.504 141.102 10.592C141.87 9.656 142.83 8.948 143.982 8.468C145.158 7.964 146.442 7.712 147.834 7.712C150.33 7.712 152.262 8.372 153.63 9.692C154.998 10.988 155.682 12.764 155.682 15.02V26H152.37L152.046 22.94C151.542 23.924 150.81 24.752 149.85 25.424C148.89 26.096 147.63 26.432 146.07 26.432ZM146.826 23.336C147.858 23.336 148.722 23.096 149.418 22.616C150.138 22.112 150.69 21.452 151.074 20.636C151.482 19.82 151.734 18.92 151.83 17.936H147.582C146.07 17.936 144.99 18.2 144.342 18.728C143.718 19.256 143.406 19.916 143.406 20.708C143.406 21.524 143.706 22.172 144.306 22.652C144.93 23.108 145.77 23.336 146.826 23.336ZM166.188 26C164.436 26 163.044 25.58 162.012 24.74C160.98 23.876 160.464 22.352 160.464 20.168V11.348H157.404V8.144H160.464L160.932 3.608H164.28V8.144H169.32V11.348H164.28V20.168C164.28 21.152 164.484 21.836 164.892 22.22C165.324 22.58 166.056 22.76 167.088 22.76H169.14V26H166.188ZM180.069 26.432C178.317 26.432 176.757 26.048 175.389 25.28C174.045 24.488 172.989 23.396 172.221 22.004C171.453 20.612 171.069 18.992 171.069 17.144C171.069 15.272 171.441 13.628 172.185 12.212C172.953 10.796 174.009 9.692 175.353 8.9C176.721 8.108 178.305 7.712 180.105 7.712C181.857 7.712 183.381 8.108 184.677 8.9C185.973 9.668 186.981 10.7 187.701 11.996C188.421 13.292 188.781 14.72 188.781 16.28C188.781 16.52 188.769 16.784 188.745 17.072C188.745 17.336 188.733 17.636 188.709 17.972H174.813C174.933 19.7 175.497 21.02 176.505 21.932C177.537 22.82 178.725 23.264 180.069 23.264C181.149 23.264 182.049 23.024 182.769 22.544C183.513 22.04 184.065 21.368 184.425 20.528H188.241C187.761 22.208 186.801 23.612 185.361 24.74C183.945 25.868 182.181 26.432 180.069 26.432ZM180.069 10.844C178.797 10.844 177.669 11.228 176.685 11.996C175.701 12.74 175.101 13.868 174.885 15.38H184.965C184.893 13.988 184.401 12.884 183.489 12.068C182.577 11.252 181.437 10.844 180.069 10.844Z" fill="#222222"/>
</svg>
