<svg width="48" height="48" viewBox="0 0 48 48" fill="none" xmlns="http://www.w3.org/2000/svg">
<path d="M36.8071 11.1999C36.3867 8.259 34.99 5.55459 32.8177 3.5085C30.4157 1.24603 27.2842 0 24.0001 0C20.7159 0 17.5845 1.24603 15.1823 3.5085C13.0101 5.55459 11.6135 8.259 11.193 11.1999C6.51414 13.2662 3.42847 17.9798 3.42847 23.1978C3.42847 30.4146 9.23376 36.2858 16.3693 36.2858C18.5685 36.2858 20.7118 35.7202 22.6095 34.6632V48H25.3903V34.6632C27.288 35.7202 29.4312 36.2858 31.6305 36.2858C38.7661 36.2858 44.5713 30.4145 44.5713 23.1978C44.5716 17.9798 41.4859 13.2661 36.8071 11.1999ZM31.6306 33.4733C29.362 33.4733 27.1692 32.7072 25.3905 31.3056V22.704L31.627 19.3876L30.3328 16.8983L25.3905 19.5264V13.9903H22.6096V25.7602L17.6674 23.132L16.3731 25.6213L22.6096 28.9377V31.3056C20.831 32.7072 18.6382 33.4733 16.3695 33.4733C10.7672 33.4733 6.20954 28.8637 6.20954 23.1978C6.20954 18.8655 8.91868 14.9759 12.9509 13.5189L13.8015 13.2116L13.8695 12.3007C14.0621 9.72553 15.2014 7.33397 17.0777 5.56669C18.9632 3.79059 21.4217 2.8125 24.0001 2.8125C26.5784 2.8125 29.0369 3.79059 30.9225 5.56659C32.7988 7.33387 33.9381 9.72534 34.1308 12.3007L34.1988 13.2115L35.0494 13.5188C39.0816 14.9758 41.7907 18.8654 41.7907 23.1977C41.7907 28.8637 37.2329 33.4733 31.6306 33.4733Z" fill="#222222"/>
</svg>
