<svg width="48" height="48" viewBox="0 0 48 48" fill="none" xmlns="http://www.w3.org/2000/svg">
<path fill-rule="evenodd" clip-rule="evenodd" d="M42.375 0V14.0625H48V36.75H0V14.0625H5.625V0H42.375ZM39.5625 2.8125H8.4375V14.0625H11.25V5.625H36.75V14.0625H39.5625V2.8125ZM33.9375 14.0625V8.4375H14.0625V14.0625H33.9375ZM8.4375 33.9375H16.9375V22.5H8.4375V33.9375ZM19.7499 33.9375H28.25V22.5H19.7499V33.9375ZM31.0625 33.9375H39.5625V22.5H31.0625V33.9375ZM42.375 33.9375H45.1875V16.875H2.8125V33.9375H5.625V19.6875H42.375V33.9375Z" fill="#222222"/>
<path fill-rule="evenodd" clip-rule="evenodd" d="M6.32812 39.5625H41.6719L48 48H0L6.32812 39.5625ZM40.2656 42.375H7.73438L5.625 45.1875H42.375L40.2656 42.375Z" fill="#222222"/>
</svg>
