<svg width="48" height="48" viewBox="0 0 48 48" fill="none" xmlns="http://www.w3.org/2000/svg">
<path fill-rule="evenodd" clip-rule="evenodd" d="M20.9404 22.5623L30.3247 13.2362L36.3394 19.2136L20.9404 34.517L11.6577 25.2921L17.6725 19.3147L20.9404 22.5623ZM17.6725 23.2998L15.6676 25.2923L20.9405 30.5322L32.3298 19.2138L30.3248 17.2213L20.9405 26.5474L17.6725 23.2998Z" fill="#222222"/>
<path fill-rule="evenodd" clip-rule="evenodd" d="M38.3159 1.40887C38.3159 4.84256 41.1269 7.63622 44.5823 7.63622H46V17.0054C46 23.7381 43.9592 30.221 40.098 35.7532C36.237 41.2853 30.8422 45.4564 24.4968 47.8153L24 48L23.5033 47.8153C17.158 45.4564 11.7632 41.2853 7.90199 35.7532C4.04079 30.221 2 23.7381 2 17.0054V7.63622H3.41769C6.87287 7.63622 9.68401 4.84275 9.68401 1.40887V0H38.3159V1.40887ZM43.1647 17.0054V10.3445C39.2789 9.73791 36.2011 6.67931 35.5909 2.81775H12.4092C11.7989 6.67931 8.72112 9.73791 4.83539 10.3445V17.0054C4.83539 23.1614 6.70137 29.0889 10.2317 34.1471C13.6608 39.0604 18.4134 42.7995 23.9999 44.9865C29.5865 42.7996 34.339 39.0604 37.7681 34.1471C41.2985 29.0888 43.1647 23.1614 43.1647 17.0054Z" fill="#222222"/>
</svg>
