<svg width="48" height="48" viewBox="0 0 48 48" fill="none" xmlns="http://www.w3.org/2000/svg">
<g clip-path="url(#clip0)">
<path fill-rule="evenodd" clip-rule="evenodd" d="M46.2834 28.1646C45.2174 28.7205 43.8979 28.7143 42.8396 28.1481L40.7917 27.0531C38.924 26.0541 36.596 26.0428 34.7167 27.0231L33.1848 27.8218V9.81381C33.1848 7.19395 35.3161 5.06261 37.936 5.06261H40.3204V2.25012H37.936C33.7652 2.25012 30.3723 5.64342 30.3723 9.81381V11.6251H18.5763V9.81381C18.5763 7.19395 20.7077 5.06261 23.3275 5.06261H25.7119V2.25012H23.3275C19.1568 2.25012 15.7639 5.64342 15.7639 9.81381V28.3436C15.6148 28.2884 15.4691 28.2235 15.3284 28.1481L13.2802 27.0531C11.4126 26.0541 9.08456 26.0428 7.20517 27.0231L5.01634 28.1646C3.95067 28.7205 2.63085 28.7143 1.5725 28.1481L0 27.3073V30.4966L0.246459 30.6284C2.11266 31.6264 4.43883 31.6381 6.31675 30.6585L8.50595 29.5166C9.57272 28.96 10.894 28.9666 11.9542 29.5331L14.002 30.6284C15.8682 31.6264 18.1944 31.6381 20.0727 30.6585L22.2615 29.5166C23.3286 28.96 24.6499 28.9666 25.7097 29.5331L27.7579 30.6284C29.6241 31.6264 31.9503 31.6381 33.8282 30.6585L36.0174 29.5166C37.0846 28.96 38.4059 28.9666 39.4657 29.5331L41.5135 30.6284C42.4565 31.1327 43.5167 31.385 44.5772 31.385C45.6158 31.385 46.6547 31.143 47.5842 30.6585L48.0002 30.4417V27.2696L46.2834 28.1646ZM30.3723 28.5502C29.9241 28.4967 29.4854 28.3627 29.084 28.1481L27.0361 27.0531C25.1685 26.0545 22.8405 26.0428 20.9611 27.0231L18.7719 28.1649C18.7078 28.1983 18.6423 28.2294 18.5763 28.2591V23.0904H30.3723V28.5502ZM30.3723 20.2779H18.5763V14.4376H30.3723V20.2779Z" fill="#222222"/>
<path d="M46.2834 35.2536C45.2174 35.8098 43.8979 35.8032 42.8396 35.2371L40.7917 34.1421C38.924 33.1435 36.596 33.1317 34.7167 34.1121L32.5275 35.2536C31.4618 35.8098 30.142 35.8032 29.084 35.2371L27.0358 34.1421C25.1681 33.1435 22.8405 33.1317 20.9607 34.1121L18.7719 35.2536C17.7062 35.8095 16.3868 35.8032 15.3281 35.2371L13.2802 34.1421C11.4122 33.1431 9.08456 33.1317 7.20517 34.1121L5.01634 35.2536C3.9503 35.8095 2.63085 35.8032 1.5725 35.2371L0 34.3963V37.5856L0.246459 37.7174C2.11266 38.7154 4.43883 38.7271 6.31675 37.7475L8.50595 36.6056C9.57272 36.049 10.894 36.0556 11.9542 36.6221L14.002 37.7174C15.8682 38.7154 18.1944 38.7271 20.0727 37.7475L22.2615 36.6056C23.3286 36.049 24.6499 36.0556 25.7097 36.6221L27.7579 37.7174C29.6241 38.7154 31.9503 38.7271 33.8282 37.7475L36.0174 36.6056C37.0846 36.049 38.4059 36.0556 39.4657 36.6221L41.5135 37.7174C42.4565 38.2217 43.5167 38.474 44.5772 38.474C45.6158 38.474 46.6547 38.232 47.5842 37.7475L48.0002 37.5303V34.3586L46.2834 35.2536Z" fill="#222222"/>
<path d="M42.8396 42.4202C43.8979 42.986 45.2174 42.9922 46.2834 42.4363L48.0002 41.5413V44.7134L47.5842 44.9302C45.7059 45.9098 43.3797 45.8984 41.5135 44.9002L39.4657 43.8052C38.4055 43.2383 37.0846 43.2317 36.0174 43.7883L33.8282 44.9302C31.9503 45.9098 29.6241 45.8984 27.7579 44.9002L25.7097 43.8052C24.6499 43.2383 23.3286 43.2321 22.2615 43.7883L20.0727 44.9302C19.1432 45.4147 18.1043 45.6567 17.0657 45.6567C16.0052 45.6567 14.945 45.4044 14.002 44.9002L11.9542 43.8052C10.8944 43.2383 9.57308 43.2321 8.50595 43.7883L6.31675 44.9302C4.43883 45.9098 2.11266 45.8984 0.246459 44.9002L0 44.7683V41.579L1.5725 42.4202C2.63085 42.9863 3.9503 42.9926 5.01634 42.4367L7.20517 41.2948C9.08456 40.3145 11.4126 40.3262 13.2802 41.3248L15.3284 42.4202C16.3864 42.986 17.7059 42.9926 18.7719 42.4367L20.9607 41.2948C22.8405 40.3145 25.1681 40.3262 27.0358 41.3248L29.084 42.4202C30.1423 42.986 31.4618 42.9922 32.5275 42.4367L34.7167 41.2948C36.596 40.3145 38.924 40.3262 40.7917 41.3248L42.8396 42.4202Z" fill="#222222"/>
</g>
<defs>
<clipPath id="clip0">
<rect width="48" height="48" fill="white"/>
</clipPath>
</defs>
</svg>
