<svg width="48" height="48" viewBox="0 0 48 48" fill="none" xmlns="http://www.w3.org/2000/svg">
<path d="M48 23.1901L24 0L0 23.1901L1.97021 25.1841L5.677 21.6021V48H42.323V21.6021L46.0298 25.1837L48 23.1901ZM14.9714 35.9731H18.7811V33.1853H16.4857L18.5746 29.3929H29.4254L31.5143 33.1853H29.2189V35.9731H33.0286V38.9916H14.9714V35.9731ZM29.8971 41.7794V45.2122H18.1029V41.7794H29.8971ZM39.5039 45.2122H32.7162V41.7794H35.8477V35.2242L31.1001 26.6047H16.8999L12.1527 35.2242V41.7794H15.2838V45.2122H8.49609V18.8784L12.8734 14.6488H35.1266L39.5039 18.8784V45.2122ZM32.2416 11.861H15.7584L24 3.89779L32.2416 11.861Z" fill="#222222"/>
</svg>
